<svg width="166" height="110" viewBox="0 0 166 110" fill="none" xmlns="http://www.w3.org/2000/svg">
<g filter="url(#filter0_d_382_147)">
<g clip-path="url(#clip0_382_147)">
<rect width="90" height="90" rx="20" transform="matrix(0.866025 0.5 -0.866025 0.5 82.9423 5)" fill="#1E1E1E"/>
<g clip-path="url(#clip1_382_147)">
<path d="M82.5093 50.25C84.6913 48.9902 87.6507 48.2825 90.7365 48.2825C93.8223 48.2825 96.7818 48.9902 98.9638 50.25C101.146 51.5098 102.372 53.2184 102.372 55C102.372 56.7816 101.146 58.4902 98.9638 59.75C96.7818 61.0098 93.8223 61.7175 90.7365 61.7175C87.6507 61.7175 84.6913 61.0098 82.5093 59.75C80.3273 58.4902 79.1014 56.7816 79.1014 55C79.1014 53.2184 80.3273 51.5098 82.5093 50.25V50.25Z" fill="#1ABCFE"/>
<path d="M49.6003 50.25C51.7823 48.9902 54.7418 48.2825 57.8276 48.2825C60.9134 48.2825 63.8728 48.9902 66.0548 50.25L74.2821 55L66.0548 59.75C63.8728 61.0098 60.9134 61.7175 57.8276 61.7175C54.7418 61.7175 51.7823 61.0098 49.6003 59.75C47.4183 58.4902 46.1925 56.7816 46.1925 55C46.1925 53.2184 47.4183 51.5098 49.6003 50.25V50.25Z" fill="#0ACF83"/>
<path d="M107.191 36L90.7365 45.5L98.9637 50.25C101.146 51.5098 104.105 52.2175 107.191 52.2175C110.277 52.2175 113.236 51.5098 115.418 50.25C117.6 48.9902 118.826 47.2816 118.826 45.5C118.826 43.7184 117.6 42.0098 115.418 40.75L107.191 36Z" fill="#FF7262"/>
<path d="M82.5093 31.25C80.3273 32.5098 79.1014 34.2184 79.1014 36C79.1014 37.7816 80.3273 39.4902 82.5093 40.75L90.7365 45.5L107.191 36L98.9638 31.25C96.7818 29.9902 93.8223 29.2825 90.7365 29.2825C87.6507 29.2825 84.6913 29.9902 82.5093 31.25V31.25Z" fill="#F24E1E"/>
<path d="M66.0548 40.75C63.8728 42.0098 62.647 43.7184 62.647 45.5C62.647 47.2816 63.8728 48.9902 66.0548 50.25L74.282 55L90.7365 45.5L82.5093 40.75C80.3273 39.4902 77.3679 38.7825 74.282 38.7825C71.1962 38.7825 68.2368 39.4902 66.0548 40.75V40.75Z" fill="#A259FF"/>
</g>
</g>
</g>
<defs>
<filter id="filter0_d_382_147" x="-10" y="-5" width="185.885" height="120" filterUnits="userSpaceOnUse" color-interpolation-filters="sRGB">
<feFlood flood-opacity="0" result="BackgroundImageFix"/>
<feColorMatrix in="SourceAlpha" type="matrix" values="0 0 0 0 0 0 0 0 0 0 0 0 0 0 0 0 0 0 127 0" result="hardAlpha"/>
<feOffset dy="5"/>
<feGaussianBlur stdDeviation="7.5"/>
<feComposite in2="hardAlpha" operator="out"/>
<feColorMatrix type="matrix" values="0 0 0 0 0 0 0 0 0 0 0 0 0 0 0 0 0 0 0.82 0"/>
<feBlend mode="normal" in2="BackgroundImageFix" result="effect1_dropShadow_382_147"/>
<feBlend mode="normal" in="SourceGraphic" in2="effect1_dropShadow_382_147" result="shape"/>
</filter>
<clipPath id="clip0_382_147">
<rect width="90" height="90" rx="20" transform="matrix(0.866025 0.5 -0.866025 0.5 82.9423 5)" fill="white"/>
</clipPath>
<clipPath id="clip1_382_147">
<rect width="38" height="57" fill="white" transform="matrix(0.866025 0.5 -0.866025 0.5 90.7365 26.5)"/>
</clipPath>
</defs>
</svg>
